<svg width="62" height="36" viewBox="0 0 62 36" fill="none" xmlns="http://www.w3.org/2000/svg">
<path d="M40.2461 8.47217L49.1328 8.56104L42.4678 15.2271L45.8447 24.5581L37.7578 20.6479L25.3271 29.0903L30.1152 17.0933L16.707 8.56104L33.7588 8.47217L36.7803 0.562988L40.2461 8.47217ZM35.5361 11.939L30.2041 12.2944L34.3809 15.0493L32.5146 20.2036L36.8691 17.0044L40.6904 18.8706L39.0908 14.605L42.0234 11.5835L38.1133 11.7612L36.8691 8.3833L35.5361 11.939Z" fill="#82E024"/>
<g filter="url(#filter0_f_7972_1660)">
<path d="M28.9602 12.3829L29.4935 9.27246L23.1836 10.3389L22.4727 12.0275L23.9835 13.1828L24.0723 12.2941L28.9602 12.3829Z" fill="#181A20"/>
</g>
<path d="M10.0535 13.5188C10.1005 13.0013 9.97506 12.5962 9.67711 12.3035C9.37917 12.0056 8.87737 11.8566 8.17171 11.8566C7.72218 11.8566 7.34583 11.9089 7.04266 12.0134C6.74472 12.1179 6.51211 12.2617 6.34484 12.4446C6.1828 12.6276 6.08088 12.8393 6.03906 13.0797C5.99201 13.2679 5.99463 13.4404 6.0469 13.5972C6.1044 13.7488 6.21155 13.8873 6.36836 14.0128C6.5304 14.1382 6.7421 14.2506 7.00346 14.3499C7.27004 14.4492 7.58628 14.5381 7.95217 14.6165L9.20667 14.8987C10.0639 15.0869 10.7826 15.3352 11.3628 15.6436C11.9483 15.9468 12.4083 16.3074 12.7428 16.7256C13.0773 17.1438 13.2969 17.6116 13.4014 18.1291C13.5112 18.6466 13.5138 19.2111 13.4093 19.8227C13.2315 20.8785 12.8212 21.7724 12.1783 22.5042C11.5353 23.236 10.6964 23.7926 9.66143 24.1742C8.62647 24.5558 7.42946 24.7466 6.07042 24.7466C4.68002 24.7466 3.49869 24.5401 2.52645 24.1272C1.55944 23.709 0.859013 23.0713 0.425165 22.2141C-0.00345665 21.3516 -0.107998 20.2513 0.111539 18.9131H4.25139C4.18867 19.4045 4.24094 19.8174 4.40821 20.152C4.57547 20.4865 4.84467 20.74 5.21579 20.9125C5.58692 21.085 6.04951 21.1713 6.60358 21.1713C7.07402 21.1713 7.47651 21.1138 7.81104 20.9988C8.14558 20.8838 8.40954 20.7243 8.60294 20.5205C8.79635 20.3166 8.91396 20.084 8.95577 19.8227C8.99759 19.5822 8.95577 19.3679 8.83032 19.1797C8.70487 18.9916 8.4775 18.8217 8.14819 18.6701C7.81888 18.5185 7.36674 18.38 6.79176 18.2545L5.255 17.9095C3.89072 17.5959 2.86099 17.0784 2.16579 16.3571C1.47058 15.6358 1.22491 14.6478 1.42877 13.3933C1.59603 12.3688 2.01681 11.475 2.69111 10.7118C3.37063 9.94346 4.2331 9.34758 5.27852 8.92418C6.32916 8.49556 7.49219 8.28125 8.7676 8.28125C10.0639 8.28125 11.1485 8.49817 12.0215 8.93202C12.8996 9.36587 13.5295 9.97483 13.9111 10.7589C14.2979 11.543 14.4024 12.4629 14.2247 13.5188H10.0535Z" fill="url(#paint0_linear_7972_1660)"/>
<path d="M14.8104 12.0134L15.4063 8.50079H29.3626L28.7667 12.0134H23.9369L21.8669 24.5584H17.5703L19.6402 12.0134H14.8104Z" fill="url(#paint1_linear_7972_1660)"/>
<path d="M46.7632 24.5584L49.429 8.50079H56.3602C57.5519 8.50079 58.5582 8.71771 59.3788 9.15156C60.1995 9.58541 60.7901 10.21 61.1508 11.0255C61.5115 11.8409 61.5977 12.8184 61.4095 13.9579C61.2214 15.1078 60.8058 16.0775 60.1629 16.8667C59.5252 17.6508 58.7124 18.2467 57.7244 18.6544C56.7417 19.0569 55.6388 19.2581 54.4157 19.2581H50.2758L50.8404 15.871H54.1021C54.6143 15.871 55.0638 15.8083 55.4507 15.6828C55.8375 15.5521 56.1511 15.3483 56.3915 15.0712C56.632 14.789 56.7888 14.4179 56.862 13.9579C56.9351 13.4979 56.8986 13.1241 56.7522 12.8367C56.6058 12.5439 56.3628 12.3296 56.023 12.1937C55.6833 12.0526 55.2625 11.982 54.7607 11.982H53.2239L51.1226 24.5584H46.7632ZM57.3951 17.1882L60.1864 24.5584H55.4507L52.7535 17.1882H57.3951Z" fill="url(#paint2_linear_7972_1660)"/>
<path d="M2.17953 29.9227V35.5527H1.33008V29.9227H2.17953Z" fill="white" fill-opacity="0.4"/>
<path d="M10.9024 29.9227V35.5527H10.1217L7.25993 31.4236H7.2077V35.5527H6.35825V29.9227H7.14447L10.009 34.0572H10.0612V29.9227H10.9024Z" fill="white" fill-opacity="0.4"/>
<path d="M16.9058 35.5527H15.0832V29.9227H16.9635C17.5151 29.9227 17.9889 30.0354 18.3847 30.2608C18.7806 30.4844 19.0839 30.806 19.2947 31.2257C19.5073 31.6436 19.6136 32.1448 19.6136 32.7294C19.6136 33.3159 19.5063 33.8199 19.2919 34.2414C19.0793 34.6629 18.7714 34.9873 18.3682 35.2145C17.9651 35.44 17.4776 35.5527 16.9058 35.5527ZM15.9326 34.8104H16.859C17.2879 34.8104 17.6443 34.7298 17.9284 34.5685C18.2125 34.4054 18.4251 34.1699 18.5662 33.862C18.7073 33.5523 18.7779 33.1748 18.7779 32.7294C18.7779 32.2877 18.7073 31.913 18.5662 31.6051C18.4269 31.2972 18.2189 31.0635 17.9422 30.9041C17.6654 30.7446 17.3218 30.6649 16.9113 30.6649H15.9326V34.8104Z" fill="white" fill-opacity="0.4"/>
<path d="M27.232 29.9227H28.0842V33.6256C28.0842 34.0196 27.9916 34.3688 27.8065 34.673C27.6214 34.9754 27.3612 35.2136 27.0258 35.3877C26.6904 35.56 26.2973 35.6461 25.8465 35.6461C25.3975 35.6461 25.0053 35.56 24.6699 35.3877C24.3345 35.2136 24.0743 34.9754 23.8892 34.673C23.7041 34.3688 23.6115 34.0196 23.6115 33.6256V29.9227H24.461V33.5569C24.461 33.8116 24.5169 34.038 24.6287 34.2359C24.7423 34.4338 24.9027 34.5896 25.1098 34.7032C25.3168 34.815 25.5624 34.8709 25.8465 34.8709C26.1324 34.8709 26.3789 34.815 26.586 34.7032C26.7949 34.5896 26.9543 34.4338 27.0643 34.2359C27.1761 34.038 27.232 33.8116 27.232 33.5569V29.9227Z" fill="white" fill-opacity="0.4"/>
<path d="M35.3315 31.4016C35.3022 31.1414 35.1812 30.9398 34.9686 30.7969C34.756 30.6521 34.4885 30.5797 34.1659 30.5797C33.935 30.5797 33.7352 30.6163 33.5666 30.6897C33.398 30.7611 33.267 30.8601 33.1735 30.9865C33.0819 31.1112 33.0361 31.2532 33.0361 31.4126C33.0361 31.5464 33.0672 31.6619 33.1295 31.759C33.1937 31.8562 33.2771 31.9377 33.3797 32.0037C33.4842 32.0678 33.596 32.1219 33.7151 32.1659C33.8342 32.208 33.9488 32.2428 34.0587 32.2703L34.6085 32.4133C34.7881 32.4573 34.9723 32.5168 35.1611 32.592C35.3498 32.6671 35.5249 32.7661 35.6861 32.8889C35.8474 33.0117 35.9775 33.1638 36.0765 33.3452C36.1773 33.5266 36.2277 33.7438 36.2277 33.9967C36.2277 34.3156 36.1452 34.5988 35.9803 34.8462C35.8172 35.0936 35.5798 35.2888 35.2683 35.4317C34.9586 35.5747 34.5838 35.6461 34.1439 35.6461C33.7224 35.6461 33.3577 35.5792 33.0498 35.4455C32.7419 35.3117 32.5009 35.122 32.3268 34.8764C32.1527 34.629 32.0565 34.3358 32.0382 33.9967H32.8904C32.9069 34.2001 32.9729 34.3697 33.0883 34.5053C33.2056 34.6391 33.355 34.739 33.5364 34.8049C33.7197 34.8691 33.9203 34.9011 34.1384 34.9011C34.3785 34.9011 34.592 34.8636 34.779 34.7884C34.9677 34.7115 35.1162 34.6052 35.2243 34.4696C35.3324 34.3321 35.3865 34.1717 35.3865 33.9885C35.3865 33.8217 35.3388 33.6852 35.2435 33.5789C35.1501 33.4726 35.0227 33.3846 34.8614 33.315C34.702 33.2453 34.5215 33.1839 34.3199 33.1308L33.6546 32.9493C33.2038 32.8266 32.8464 32.646 32.5825 32.4078C32.3204 32.1695 32.1894 31.8543 32.1894 31.4621C32.1894 31.1377 32.2774 30.8546 32.4533 30.6127C32.6292 30.3708 32.8675 30.1829 33.168 30.0491C33.4686 29.9135 33.8076 29.8457 34.1852 29.8457C34.5664 29.8457 34.9027 29.9126 35.1941 30.0464C35.4873 30.1802 35.7182 30.3644 35.8868 30.5989C36.0554 30.8317 36.1434 31.0993 36.1507 31.4016H35.3315Z" fill="white" fill-opacity="0.4"/>
<path d="M39.9068 30.6539V29.9227H44.264V30.6539H42.5074V35.5527H41.6607V30.6539H39.9068Z" fill="white" fill-opacity="0.4"/>
<path d="M48.1685 35.5527V29.9227H50.1753C50.6115 29.9227 50.9734 29.9978 51.2611 30.1481C51.5507 30.2984 51.767 30.5064 51.9099 30.7721C52.0529 31.036 52.1243 31.3412 52.1243 31.6875C52.1243 32.0321 52.0519 32.3354 51.9072 32.5975C51.7642 32.8577 51.548 33.0602 51.2584 33.205C50.9707 33.3498 50.6087 33.4222 50.1725 33.4222H48.6523V32.6909H50.0956C50.3705 32.6909 50.594 32.6515 50.7663 32.5727C50.9404 32.4939 51.0678 32.3794 51.1484 32.2291C51.2291 32.0788 51.2694 31.8983 51.2694 31.6875C51.2694 31.475 51.2282 31.2908 51.1457 31.135C51.065 30.9792 50.9377 30.8601 50.7636 30.7776C50.5913 30.6933 50.365 30.6512 50.0846 30.6512H49.0179V35.5527H48.1685ZM50.9478 33.0126L52.3388 35.5527H51.3711L50.0076 33.0126H50.9478Z" fill="white" fill-opacity="0.4"/>
<path d="M55.4612 29.9227H56.4261L57.8968 32.482H57.9573L59.428 29.9227H60.3929L58.3504 33.3425V35.5527H57.5037V33.3425L55.4612 29.9227Z" fill="white" fill-opacity="0.4"/>
<defs>
<filter id="filter0_f_7972_1660" x="18.4727" y="5.27246" width="15.0215" height="11.9102" filterUnits="userSpaceOnUse" color-interpolation-filters="sRGB">
<feFlood flood-opacity="0" result="BackgroundImageFix"/>
<feBlend mode="normal" in="SourceGraphic" in2="BackgroundImageFix" result="shape"/>
<feGaussianBlur stdDeviation="2" result="effect1_foregroundBlur_7972_1660"/>
</filter>
<linearGradient id="paint0_linear_7972_1660" x1="30.6518" y1="8.56158" x2="30.6518" y2="24.5584" gradientUnits="userSpaceOnUse">
<stop stop-color="white"/>
<stop offset="1" stop-color="#929395"/>
</linearGradient>
<linearGradient id="paint1_linear_7972_1660" x1="30.6518" y1="8.56158" x2="30.6518" y2="24.5584" gradientUnits="userSpaceOnUse">
<stop stop-color="white"/>
<stop offset="1" stop-color="#929395"/>
</linearGradient>
<linearGradient id="paint2_linear_7972_1660" x1="30.6518" y1="8.56158" x2="30.6518" y2="24.5584" gradientUnits="userSpaceOnUse">
<stop stop-color="white"/>
<stop offset="1" stop-color="#929395"/>
</linearGradient>
</defs>
</svg>
