<svg width="33" height="32" viewBox="0 0 33 32" fill="none" xmlns="http://www.w3.org/2000/svg">
<path d="M16.7725 4.58691C17.6168 4.6289 18.4179 4.98337 19.0186 5.58398C19.6592 6.22468 20.0195 7.09393 20.0195 8V9.91699H23.9639L24.1973 9.93066C24.4286 9.95711 24.6545 10.0225 24.8652 10.124C25.1463 10.2596 25.3941 10.4563 25.5889 10.7002L30.2275 16.499L30.332 16.6416C30.561 16.9828 30.6858 17.3853 30.6865 17.7988V22.667C30.6865 23.2193 30.4666 23.749 30.0762 24.1396C29.6855 24.5303 29.155 24.7499 28.6025 24.75H26.6016C26.2597 26.2758 24.8986 27.4159 23.2695 27.416C21.6403 27.416 20.2775 26.276 19.9355 24.75H13.2686C12.9267 26.2758 11.5655 27.4158 9.93652 27.416C8.30729 27.416 6.94452 26.276 6.60254 24.75H4.60254C4.0502 24.7499 3.52049 24.5302 3.12988 24.1396C2.73918 23.7489 2.51953 23.2185 2.51953 22.666V8C2.5196 7.09393 2.87982 6.22468 3.52051 5.58398C4.16123 4.94339 5.03048 4.58301 5.93652 4.58301H16.6025L16.7725 4.58691ZM9.93652 22.083C8.87806 22.083 8.01966 22.9416 8.01953 24C8.01971 25.0584 8.87809 25.916 9.93652 25.916C10.9947 25.9157 11.8524 25.0582 11.8525 24C11.8524 22.9418 10.9947 22.0833 9.93652 22.083ZM23.2695 22.083C22.2111 22.083 21.3527 22.9416 21.3525 24C21.3527 25.0584 22.2111 25.916 23.2695 25.916C24.3278 25.9158 25.1854 25.0583 25.1855 24C25.1854 22.9417 24.3278 22.0832 23.2695 22.083ZM5.93652 6.08301C5.42831 6.08301 4.94048 6.28524 4.58105 6.64453C4.22167 7.00392 4.0196 7.49176 4.01953 8V22.666C4.01953 22.8207 4.08103 22.9697 4.19043 23.0791C4.29973 23.1883 4.44802 23.2499 4.60254 23.25H6.60352C6.94562 21.724 8.30741 20.583 9.93652 20.583C11.5654 20.5833 12.9267 21.7242 13.2686 23.25H18.5195V8C18.5195 7.49176 18.3174 7.00392 17.958 6.64453C17.6435 6.33 17.2308 6.13633 16.792 6.09277L16.6025 6.08301H5.93652ZM20.0195 22.9434C20.4647 21.5736 21.7515 20.583 23.2695 20.583C24.8985 20.5832 26.2596 21.7241 26.6016 23.25H28.6025C28.7572 23.2499 28.9063 23.1884 29.0156 23.0791C29.1248 22.9698 29.1865 22.8215 29.1865 22.667V17.8018L29.1777 17.7031C29.161 17.6066 29.1196 17.5148 29.0576 17.4375V17.4365L24.417 11.6367C24.3625 11.5685 24.2925 11.5126 24.2139 11.4746C24.1746 11.4557 24.1331 11.4413 24.0908 11.4316L23.9619 11.417H20.0195V22.9434Z" fill="white" fill-opacity="0.4"/>
</svg>
