<svg width="33" height="32" viewBox="0 0 33 32" fill="none" xmlns="http://www.w3.org/2000/svg">
<path d="M7.4502 3.17773C9.82933 2.45885 12.335 2.25632 14.7988 2.58301C17.051 2.88169 19.2209 3.61824 21.1885 4.74609L21.5684 4.36719L21.5732 4.36133C21.9719 3.97055 22.5091 3.75207 23.0674 3.75195C23.5557 3.75205 24.0271 3.92012 24.4043 4.22363L24.5605 4.36133L24.5664 4.36719L28.0322 7.83398L28.0381 7.83984C28.4289 8.23855 28.6484 8.77473 28.6484 9.33301C28.6484 9.89138 28.4289 10.4274 28.0381 10.8262L27.6533 11.21C28.7819 13.1781 29.5186 15.3485 29.8174 17.6016C30.1441 20.0652 29.9404 22.5702 29.2217 24.9492C29.2005 25.0193 29.1702 25.0867 29.1309 25.1484C28.9249 25.4712 28.6357 25.7327 28.2939 25.9053C27.9521 26.0778 27.5695 26.1558 27.1875 26.1299C26.8056 26.1038 26.4373 25.9749 26.1221 25.7578C25.8069 25.5406 25.5559 25.2421 25.3955 24.8945C25.3841 24.8697 25.3731 24.8442 25.3643 24.8184C24.4457 22.1284 23.1302 19.5929 21.4639 17.2939C21.1428 17.479 20.7771 17.581 20.4004 17.5811C20.2617 17.581 20.1244 17.5674 19.9902 17.541L9.79199 27.7393C9.11155 28.4196 8.18782 28.8018 7.22559 28.8018C6.26349 28.8016 5.34049 28.4195 4.66016 27.7393C3.97986 27.0589 3.59782 26.1359 3.59766 25.1738C3.59766 24.2116 3.9798 23.2879 4.66016 22.6074L14.8594 12.4082C14.8334 12.2747 14.8194 12.1379 14.8193 12C14.8194 11.6237 14.9201 11.2576 15.1045 10.9365C12.8062 9.2708 10.2711 7.95554 7.58203 7.03711C7.55635 7.02833 7.53052 7.01818 7.50586 7.00684C7.15774 6.84658 6.85915 6.5948 6.6416 6.2793C6.42413 5.96378 6.2955 5.59521 6.26953 5.21289C6.24362 4.83061 6.32132 4.44842 6.49414 4.10645C6.66704 3.76441 6.92868 3.47441 7.25195 3.26855C7.31344 3.22942 7.38044 3.19885 7.4502 3.17773ZM5.79199 23.7393C5.4117 24.1196 5.19727 24.6359 5.19727 25.1738C5.19743 25.7116 5.41175 26.2272 5.79199 26.6074C6.17227 26.9877 6.68783 27.202 7.22559 27.2021C7.76348 27.2021 8.27977 26.9877 8.66016 26.6074L18.6025 16.666L15.7324 13.7969L5.79199 23.7393ZM22.6543 16.209C24.4528 18.6595 25.8708 21.369 26.8594 24.2461C26.8995 24.3235 26.9583 24.3908 27.0303 24.4404C27.1088 24.4944 27.2008 24.5266 27.2959 24.5332C27.3911 24.5397 27.487 24.5204 27.5723 24.4775C27.6313 24.4478 27.6836 24.4061 27.7275 24.3574C28.3492 22.2347 28.5214 20.0052 28.2305 17.8115C27.9781 15.9092 27.3822 14.0722 26.4766 12.3867L22.6543 16.209ZM23.0674 5.35156C22.9305 5.35168 22.7982 5.40474 22.6992 5.49902L16.8555 11.3418C16.8409 11.3578 16.8261 11.3731 16.8105 11.3877L16.5664 11.6318C16.4721 11.7309 16.419 11.8631 16.4189 12C16.4191 12.1367 16.4724 12.2682 16.5664 12.3672L20.0264 15.8281C20.126 15.9257 20.261 15.9803 20.4004 15.9805C20.5399 15.9804 20.6738 15.9258 20.7734 15.8281L26.8955 9.70605C26.9932 9.60639 27.0478 9.47256 27.0479 9.33301C27.0478 9.19358 26.9931 9.05957 26.8955 8.95996V8.95898L23.4346 5.49902H23.4336C23.3347 5.4053 23.2038 5.35167 23.0674 5.35156ZM14.5889 4.16895C12.3948 3.87803 10.164 4.04981 8.04102 4.67188C7.99219 4.71583 7.95174 4.76904 7.92188 4.82812C7.87876 4.91351 7.85881 5.00906 7.86523 5.10449C7.87172 5.20002 7.90467 5.29225 7.95898 5.37109C8.00948 5.44433 8.0781 5.50279 8.15723 5.54297C11.032 6.5314 13.7396 7.94897 16.1885 9.74609L20.0127 5.92188C18.3278 5.01646 16.4905 4.42118 14.5889 4.16895Z" fill="white" fill-opacity="0.4"/>
</svg>
