<svg width="33" height="32" viewBox="0 0 33 32" fill="none" xmlns="http://www.w3.org/2000/svg">
<path d="M14.9365 3.70325C15.6975 3.4003 16.5404 3.38143 17.3115 3.64661L17.4648 3.70325L17.4658 3.70422L28.1299 7.96985H28.1309C28.7637 8.22196 29.3079 8.65777 29.6914 9.22083C30.0749 9.78394 30.2814 10.4497 30.2842 11.131V26.6671C30.2841 27.5731 29.9239 28.4425 29.2832 29.0831C28.6425 29.7238 27.7732 30.084 26.8672 30.0841H5.53418C4.62824 30.0841 3.75887 29.7236 3.11816 29.0831C2.4775 28.4425 2.11728 27.5731 2.11719 26.6671V11.131L2.12793 10.8761C2.17452 10.2846 2.37435 9.7136 2.70996 9.22083C3.09351 8.65776 3.63659 8.22193 4.26953 7.96985L14.9355 3.70422L14.9365 3.70325ZM16.9082 5.09583C16.4534 4.9152 15.9459 4.91487 15.4912 5.09583L15.4922 5.0968L4.82617 9.3634H4.82422C4.46923 9.50485 4.16433 9.74971 3.94922 10.0656C3.73418 10.3814 3.61873 10.7547 3.61719 11.1368V26.6671C3.61728 27.1753 3.81935 27.6632 4.17871 28.0226C4.53811 28.3817 5.02606 28.5841 5.53418 28.5841H7.4502V13.3331C7.45035 12.919 7.78608 12.5831 8.2002 12.5831H24.2002C24.6143 12.5831 24.95 12.919 24.9502 13.3331V28.5841H26.8672C27.3754 28.584 27.8633 28.3819 28.2227 28.0226C28.582 27.6632 28.7841 27.1753 28.7842 26.6671V11.1368L28.7783 10.9943C28.7523 10.6624 28.6394 10.342 28.4512 10.0656C28.2361 9.74973 27.9312 9.50484 27.5762 9.3634H27.5752L16.9082 5.0968V5.09583ZM8.9502 24.7501V28.5831H23.4502V24.7501H8.9502ZM8.9502 19.4171V23.2501H23.4502V19.4171H8.9502ZM8.9502 17.9171H23.4502V14.0831H8.9502V17.9171Z" fill="white" fill-opacity="0.4"/>
</svg>
