<svg width="32" height="32" viewBox="0 0 32 32" fill="none" xmlns="http://www.w3.org/2000/svg">
<path d="M16.3327 28.3337H4.38677C3.70422 28.3337 3.22225 27.665 3.43809 27.0174L5.43809 21.0174C5.57421 20.6091 5.95634 20.3337 6.38678 20.3337H12.9453C13.3757 20.3337 13.7578 20.6091 13.8939 21.0174L16.3327 28.3337ZM16.3327 28.3337L18.7714 21.0174C18.9075 20.6091 19.2897 20.3337 19.7201 20.3337H26.2786C26.709 20.3337 27.0912 20.6091 27.2273 21.0174L29.2273 27.0174C29.4431 27.665 28.9611 28.3337 28.2786 28.3337H16.3327ZM1.66602 16.3337H5.66602M5.93268 5.93366L8.73268 8.73366M16.3327 1.66699V5.66699M26.7327 5.93366L23.9327 8.73366M30.9993 16.3337H26.9993M21.6119 20.3337H11.0534C10.3709 20.3337 9.88891 19.665 10.1048 19.0174L12.1048 13.0174C12.2409 12.6091 12.623 12.3337 13.0534 12.3337H19.6119C20.0424 12.3337 20.4245 12.6091 20.5606 13.0174L22.5606 19.0174C22.7765 19.665 22.2945 20.3337 21.6119 20.3337Z" stroke="white" stroke-opacity="0.4" stroke-width="1.5" stroke-linecap="round" stroke-linejoin="round"/>
</svg>
