<svg width="24" height="24" viewBox="0 0 24 24" fill="none" xmlns="http://www.w3.org/2000/svg">
<g clip-path="url(#clip0_7972_1628)">
<path d="M23.8744 6.90557L17.0944 0.125572C17.0141 0.0451932 16.9051 2.42732e-05 16.7914 0H7.20857C7.09492 2.42732e-05 6.98593 0.0451932 6.90557 0.125572L0.125572 6.90557C0.0451932 6.98593 2.42732e-05 7.09492 0 7.20857V16.7914C2.42732e-05 16.9051 0.0451932 17.0141 0.125572 17.0944L6.90557 23.8744C6.98593 23.9548 7.09492 24 7.20857 24H16.7914C16.9051 24 17.0141 23.9548 17.0944 23.8744L23.8744 17.0944C23.9548 17.0141 24 16.9051 24 16.7914V7.20857C24 7.09492 23.9548 6.98593 23.8744 6.90557Z" fill="#FF5858"/>
<path d="M16.4369 23.1431H7.56371C7.45005 23.1431 7.34106 23.0979 7.26071 23.0176L0.982993 16.7398C0.902615 16.6595 0.857446 16.5505 0.857422 16.4369V7.56371C0.857446 7.45005 0.902615 7.34106 0.982993 7.26071L7.26071 0.982993C7.34106 0.902615 7.45005 0.857446 7.56371 0.857422H16.4369C16.5505 0.857446 16.6595 0.902615 16.7398 0.982993L23.0176 7.26071C23.0979 7.34106 23.1431 7.45005 23.1431 7.56371V16.4369C23.1431 16.5505 23.0979 16.6595 23.0176 16.7398L16.7398 23.0176C16.6595 23.0979 16.5505 23.1431 16.4369 23.1431ZM7.74114 22.286H16.259L22.286 16.259V7.74199L16.259 1.71456H7.74199L1.71456 7.74156V16.2594L7.74114 22.286Z" fill="#FAFAFA"/>
<path d="M4.71429 15C4.2598 14.9994 3.8241 14.8186 3.50273 14.4973C3.18136 14.1759 3.00057 13.7402 3 13.2857C3 13.1721 3.04515 13.063 3.12553 12.9827C3.2059 12.9023 3.31491 12.8571 3.42857 12.8571C3.54224 12.8571 3.65125 12.9023 3.73162 12.9827C3.81199 13.063 3.85714 13.1721 3.85714 13.2857C3.85714 13.4552 3.90741 13.621 4.0016 13.7619C4.09578 13.9029 4.22965 14.0127 4.38627 14.0776C4.54289 14.1425 4.71524 14.1595 4.88151 14.1264C5.04778 14.0933 5.2005 14.0117 5.32038 13.8918C5.44025 13.7719 5.52189 13.6192 5.55496 13.4529C5.58803 13.2867 5.57106 13.1143 5.50618 12.9577C5.44131 12.8011 5.33145 12.6672 5.19049 12.573C5.04953 12.4788 4.88381 12.4286 4.71429 12.4286C4.37523 12.4286 4.04379 12.328 3.76188 12.1397C3.47997 11.9513 3.26024 11.6836 3.13049 11.3703C3.00074 11.0571 2.96679 10.7124 3.03294 10.3798C3.09909 10.0473 3.26236 9.74185 3.5021 9.5021C3.74185 9.26236 4.04731 9.09909 4.37985 9.03294C4.71239 8.96679 5.05707 9.00074 5.37032 9.13049C5.68356 9.26024 5.95129 9.47997 6.13966 9.76188C6.32803 10.0438 6.42857 10.3752 6.42857 10.7143C6.42857 10.828 6.38342 10.937 6.30305 11.0173C6.22267 11.0977 6.11367 11.1429 6 11.1429C5.88634 11.1429 5.77733 11.0977 5.69695 11.0173C5.61658 10.937 5.57143 10.828 5.57143 10.7143C5.57143 10.5448 5.52116 10.379 5.42697 10.2381C5.33279 10.0971 5.19892 9.98726 5.0423 9.92239C4.88568 9.85751 4.71334 9.84054 4.54707 9.87361C4.3808 9.90669 4.22807 9.98832 4.1082 10.1082C3.98832 10.2281 3.90669 10.3808 3.87361 10.5471C3.84054 10.7133 3.85751 10.8857 3.92239 11.0423C3.98726 11.1989 4.09713 11.3328 4.23808 11.427C4.37904 11.5212 4.54476 11.5714 4.71429 11.5714C5.16894 11.5714 5.60498 11.752 5.92647 12.0735C6.24796 12.395 6.42857 12.8311 6.42857 13.2857C6.42857 13.7404 6.24796 14.1764 5.92647 14.4979C5.60498 14.8194 5.16894 15 4.71429 15ZM11.1429 9H7.71429C7.60062 9 7.49161 9.04515 7.41124 9.12553C7.33087 9.2059 7.28572 9.31491 7.28572 9.42857C7.28572 9.54224 7.33087 9.65125 7.41124 9.73162C7.49161 9.81199 7.60062 9.85714 7.71429 9.85714H9V14.5714C9 14.6851 9.04515 14.7941 9.12553 14.8745C9.2059 14.9548 9.31491 15 9.42857 15C9.54224 15 9.65125 14.9548 9.73162 14.8745C9.81199 14.7941 9.85714 14.6851 9.85714 14.5714V9.85714H11.1429C11.2565 9.85714 11.3655 9.81199 11.4459 9.73162C11.5263 9.65125 11.5714 9.54224 11.5714 9.42857C11.5714 9.31491 11.5263 9.2059 11.4459 9.12553C11.3655 9.04515 11.2565 9 11.1429 9ZM14.1429 15C13.6883 14.9995 13.2526 14.8188 12.9312 14.4974C12.6098 14.176 12.429 13.7402 12.4286 13.2857V10.7143C12.4286 10.2596 12.6092 9.82359 12.9307 9.5021C13.2522 9.18061 13.6882 9 14.1429 9C14.5975 9 15.0335 9.18061 15.355 9.5021C15.6765 9.82359 15.8571 10.2596 15.8571 10.7143V13.2857C15.8567 13.7402 15.6759 14.176 15.3545 14.4974C15.0331 14.8188 14.5974 14.9995 14.1429 15ZM14.1429 9.85714C13.9155 9.85714 13.6975 9.94745 13.5368 10.1082C13.376 10.2689 13.2857 10.487 13.2857 10.7143V13.2857C13.2857 13.513 13.376 13.7311 13.5368 13.8918C13.6975 14.0526 13.9155 14.1429 14.1429 14.1429C14.3702 14.1429 14.5882 14.0526 14.749 13.8918C14.9097 13.7311 15 13.513 15 13.2857V10.7143C15 10.487 14.9097 10.2689 14.749 10.1082C14.5882 9.94745 14.3702 9.85714 14.1429 9.85714ZM17.5714 15C17.4578 15 17.3488 14.9548 17.2684 14.8745C17.188 14.7941 17.1429 14.6851 17.1429 14.5714V9.42857C17.1429 9.31491 17.188 9.2059 17.2684 9.12553C17.3488 9.04515 17.4578 9 17.5714 9H19.2857C19.7404 9 20.1764 9.18061 20.4979 9.5021C20.8194 9.82359 21 10.2596 21 10.7143C21 11.1689 20.8194 11.605 20.4979 11.9265C20.1764 12.248 19.7404 12.4286 19.2857 12.4286H18V14.5714C18 14.6851 17.9548 14.7941 17.8745 14.8745C17.7941 14.9548 17.6851 15 17.5714 15ZM18 11.5714H19.2857C19.513 11.5714 19.7311 11.4811 19.8918 11.3204C20.0526 11.1596 20.1429 10.9416 20.1429 10.7143C20.1429 10.487 20.0526 10.2689 19.8918 10.1082C19.7311 9.94745 19.513 9.85714 19.2857 9.85714H18V11.5714Z" fill="#FAFAFA"/>
</g>
<defs>
<clipPath id="clip0_7972_1628">
<rect width="24" height="24" fill="white"/>
</clipPath>
</defs>
</svg>
